<svg xmlns="http://www.w3.org/2000/svg" viewBox="0 0 10.29 10.29"><title>instogram</title><g id="Слой_2" data-name="Слой 2"><g id="Слой_1-2" data-name="Слой 1"><path d="M10.29,1.32V9A1.33,1.33,0,0,1,9,10.29H1.32A1.27,1.27,0,0,1,.39,9.9,1.27,1.27,0,0,1,0,9V1.32A1.27,1.27,0,0,1,.39.39,1.27,1.27,0,0,1,1.32,0H9A1.27,1.27,0,0,1,9.9.39,1.27,1.27,0,0,1,10.29,1.32ZM9.12,8.69V4.35h-.9a2.89,2.89,0,0,1,.13.88,3,3,0,0,1-.43,1.56A3.15,3.15,0,0,1,6.76,7.92a3.29,3.29,0,0,1-1.61.41,3.12,3.12,0,0,1-2.26-.91A2.93,2.93,0,0,1,2,5.23a2.89,2.89,0,0,1,.13-.88H1.15V8.69A.36.36,0,0,0,1.26,9a.4.4,0,0,0,.29.12H8.71A.4.4,0,0,0,9,9,.37.37,0,0,0,9.12,8.69ZM6.61,6.54a1.88,1.88,0,0,0,.61-1.42,1.87,1.87,0,0,0-.61-1.41,2,2,0,0,0-1.46-.59,2,2,0,0,0-1.46.59,1.9,1.9,0,0,0-.6,1.41,1.9,1.9,0,0,0,.6,1.42,2,2,0,0,0,1.46.58A2,2,0,0,0,6.61,6.54ZM9.12,2.71V1.61a.44.44,0,0,0-.46-.46H7.49a.41.41,0,0,0-.32.13A.45.45,0,0,0,7,1.61v1.1A.45.45,0,0,0,7.17,3a.41.41,0,0,0,.32.13H8.66a.44.44,0,0,0,.46-.46Z"/></g></g></svg>